<?xml version="1.0" encoding="UTF-8" standalone="no"?>
<!-- Created with Inkscape (http://www.inkscape.org/) -->

<svg
   width="146.9314mm"
   height="147.83563mm"
   viewBox="0 0 146.9314 147.83563"
   version="1.1"
   id="svg1"
   xmlns="http://www.w3.org/2000/svg"
   xmlns:svg="http://www.w3.org/2000/svg">
  <defs
     id="defs1" />
  <g
     id="layer1"
     transform="translate(-20.244799,-58.436991)">
    <path
       class="st1"
       d="m 154.72118,141.94603 c 0.51065,-3.21928 0.77707,-6.43854 0.77707,-9.61342 0,-1.57632 -0.0666,-3.17487 -0.19974,-4.84 l 10.65691,-3.46349 0.82146,-0.26642 -0.11101,-0.84368 c -0.97689,-7.59305 -3.10827,-14.94186 -6.37193,-21.89105 l -0.39965,-0.82147 -0.86587,0.28862 -10.45709,3.39689 c -2.3756,-4.573584 -5.28405,-8.791942 -8.68095,-12.610668 l 6.52738,-9.013965 0.51064,-0.710464 -0.59947,-0.621641 C 140.97829,75.451405 134.82838,70.877816 128.079,67.281111 l -0.79926,-0.421835 -0.53285,0.732657 -6.50517,8.925154 c -4.72898,-2.242382 -9.72441,-3.885331 -14.89743,-4.862202 V 60.59834 59.710267 l -0.88808,-0.133207 c -3.55231,-0.510635 -7.149021,-0.777056 -10.723521,-0.777056 -4.01853,0 -8.05927,0.333025 -12.05562,0.976873 l -0.86587,0.133208 v 0.888084 11.123139 c -5.01762,1.065683 -9.90204,2.775237 -14.56444,5.084225 l -6.46074,-8.902951 -0.53285,-0.732658 -0.79927,0.444031 c -6.70498,3.685516 -12.78828,8.347904 -18.05011,13.920582 l -0.59946,0.621653 0.51065,0.688257 6.57175,9.058365 c -3.19708,3.729914 -5.95009,7.792855 -8.1703,12.144428 l -10.45709,-3.39688 -0.86586,-0.28863 -0.37743,0.84367 c -3.219279,6.94918 -5.328453,14.3202 -6.260929,21.93546 l -0.111006,0.84368 0.821486,0.26642 10.679099,3.46348 c -0.13328,1.57634 -0.19973,3.01945 -0.19973,4.41817 0,3.04165 0.24421,6.12773 0.71046,9.21378 l -10.479291,3.39689 -0.865867,0.28863 0.177652,0.91028 c 1.420921,7.52643 4.018523,14.74204 7.681856,21.46921 l 0.42182,0.75486 0.82147,-0.26641 10.6569,-3.4635 c 2.2424,3.6189 4.84001,7.038 7.81508,10.16845 l -6.48295,8.94736 -0.53285,0.73266 0.64384,0.62166 c 5.50609,5.35066 11.74482,9.76882 18.60518,13.16571 l 0.77707,0.39965 0.51065,-0.71048 6.54955,-9.01395 c 3.81873,1.68734 7.81506,2.97505 11.85578,3.84092 v 11.10095 0.88806 l 0.8659,0.15537 c 3.97414,0.64386 8.03706,0.9769 12.05561,0.9769 3.5745,0 7.193411,-0.26644 10.723501,-0.77708 l 0.8881,-0.1333 v -0.88806 -11.05655 c 4.17395,-0.79926 8.28128,-2.02035 12.16662,-3.64108 l 6.57175,9.03615 0.51065,0.71046 0.77706,-0.37742 c 6.88259,-3.28589 13.21013,-7.63748 18.805,-12.89931 l 0.66604,-0.62165 -0.53283,-0.73267 -6.46076,-8.90294 c 3.15267,-3.21928 5.95011,-6.77158 8.3257,-10.59031 l 10.65692,3.46349 0.82145,0.26643 0.42184,-0.75485 c 3.70771,-6.70497 6.34974,-13.89838 7.81506,-21.42482 l 0.17765,-0.91027 -0.86586,-0.28863 z m 1.93155,24.24444 -10.61249,-3.44128 -0.77707,-0.24423 -0.42183,0.71046 c -2.53102,4.19617 -5.59487,8.05928 -9.08056,11.52277 l -0.64386,0.62165 0.53285,0.71047 6.43852,8.85856 c -5.03981,4.64018 -10.70128,8.52551 -16.82901,11.54497 l -6.54954,-8.99177 -0.48845,-0.68826 -0.75487,0.33304 c -4.24056,1.84276 -8.72533,3.19706 -13.34333,3.99635 l -0.86586,0.13328 v 0.86587 11.01214 c -3.15266,0.42183 -6.349741,0.64386 -9.524621,0.64386 -3.6189,0 -7.26001,-0.28864 -10.85671,-0.84369 v -11.05652 -0.84367 l -0.84367,-0.17765 c -4.46259,-0.88807 -8.83634,-2.28679 -13.01031,-4.19615 l -0.77706,-0.35522 -0.51066,0.68823 -6.50515,8.96959 c -6.08331,-3.10828 -11.67817,-7.0602 -16.65139,-11.7892 l 6.46075,-8.88077 0.51064,-0.71046 -0.62165,-0.62164 c -3.28588,-3.37468 -6.14993,-7.12681 -8.54773,-11.12315 l -0.42184,-0.71047 -0.79926,0.26644 -10.54589,3.41908 c -3.21927,-6.0389 -5.528278,-12.47745 -6.882592,-19.20462 l 10.412682,-3.37468 0.84367,-0.26642 -0.13329,-0.86588 c -0.53283,-3.26368 -0.82146,-6.54955 -0.82146,-9.76883 0,-1.57632 0.0666,-3.21927 0.22201,-5.06202 l 0.0666,-0.82147 -0.77706,-0.26643 -10.612499,-3.44129 c 0.91027,-6.79378 2.797439,-13.38774 5.594879,-19.62645 l 10.39048,3.37468 0.86587,0.28862 0.39963,-0.79927 c 2.33118,-4.72899 5.30625,-9.147176 8.81415,-13.121305 l 0.55505,-0.621655 -0.48845,-0.666051 -6.54957,-9.013965 c 4.77343,-4.906616 10.19068,-9.102766 16.16299,-12.455255 l 6.43854,8.858551 0.51066,0.732667 0.79926,-0.399643 c 4.951,-2.553213 10.21286,-4.395978 15.63012,-5.483855 l 0.84367,-0.155408 V 72.809447 61.752915 c 3.5967,-0.555047 7.23781,-0.843673 10.8567,-0.843673 3.17489,0 6.394171,0.22202 9.546831,0.643858 V 72.565221 73.4311 l 0.86587,0.155409 c 5.57267,0.976883 10.94551,2.730823 15.98533,5.217433 l 0.77709,0.399631 0.51065,-0.71045 6.46072,-8.902961 c 5.99452,3.285883 11.47839,7.371029 16.3184,12.211038 l -6.50514,8.947348 -0.48845,0.688271 0.57723,0.621652 c 3.70773,4.040735 6.8382,8.614319 9.34701,13.565349 l 0.39962,0.79926 0.84368,-0.28862 10.41269,-3.37469 c 2.84182,6.23873 4.75119,12.81049 5.70586,19.58206 l -10.59029,3.44129 -0.79927,0.24422 0.0666,0.82147 c 0.17766,1.90936 0.26644,3.70771 0.26644,5.46167 0,3.35248 -0.28863,6.74936 -0.86589,10.14625 l -0.15537,0.88807 0.84367,0.28863 10.41268,3.37468 c -1.44312,6.70497 -3.7965,13.14351 -7.03799,19.18243 z"
       id="path37-6"
       style="clip-rule:evenodd;fill:#999999;fill-rule:evenodd;stroke:#008080;stroke-width:0.726027;stroke-dasharray:none" />
    <path
       class="st1"
       d="m 108.07501,93.212906 c -1.68733,0.377426 -3.04165,-0.266422 -3.57447,-0.95468 -0.53286,-0.688258 0.15536,-2.775236 0.73264,-2.66423 0.57725,0.111025 0.0444,0.466249 -0.11101,1.420926 -0.15537,0.932471 0.42184,1.198904 0.42184,1.198904 5.39507,-4.085156 1.19891,-5.350655 1.19891,-5.350655 1.4653,-1.731748 0.62166,-4.307168 0.62166,-4.307168 -3.35249,1.0879 -3.4191,3.774326 -3.4191,3.774326 -0.79926,-1.26551 -2.93064,-0.466249 -3.46349,0.732655 -0.532851,1.198893 -0.42184,4.57359 -0.42184,4.57359 2.15358,0.466236 1.66513,-2.3534 2.46442,-2.464416 0.77704,-0.111027 1.2655,2.619832 -2.42003,3.30809 -3.663301,0.688256 -4.617991,-1.420926 -5.039821,-2.575422 -0.42182,-1.154491 0.93247,-2.153581 1.24331,-0.577252 0.31082,1.576332 1.57633,2.153584 1.57633,2.153584 -0.46622,-1.154494 1.42092,-2.930652 1.26552,-4.92882 -0.15537,-1.998167 -3.57451,-0.932471 -3.57451,-0.932471 0.44405,-0.976886 0.26642,-1.99817 -0.11101,-2.886242 -0.22201,-0.532854 -0.51064,-0.99909 -0.79926,-1.398735 v -1.909355 h 1.55413 v -2.020362 h -1.55413 v -1.1767 h -2.02037 v 1.1767 h -1.53193 v 2.020362 h 1.53193 v 1.998166 c -0.26642,0.377438 -0.53285,0.843676 -0.75487,1.332117 -0.37742,0.888085 -0.53284,1.909358 -0.111,2.88624 0,0 -3.41908,-1.043488 -3.5745,0.932487 -0.15537,1.998167 1.73175,3.774326 1.26551,4.928817 0,0 1.26551,-0.577252 1.57633,-2.153582 0.31083,-1.576342 1.66513,-0.577254 1.26551,0.577252 -0.42182,1.154494 -1.35432,3.263678 -5.03983,2.57541 -3.6633,-0.688258 -3.19707,-3.396888 -2.42001,-3.30808 0.77708,0.111027 0.31084,2.930654 2.46442,2.464405 0,0 0.11101,-3.352477 -0.42183,-4.573574 -0.53287,-1.198906 -2.68645,-1.998181 -3.46349,-0.732671 0,0 -0.0444,-2.686425 -3.41909,-3.774313 0,0 -0.84367,2.575407 0.62163,4.307166 0,0 -4.19613,1.265499 1.19891,5.350644 0,0 0.57725,-0.266419 0.42184,-1.198903 -0.15536,-0.954667 -0.68826,-1.3099 -0.111,-1.420916 0.57725,-0.111024 1.26551,1.99817 0.73266,2.664232 -0.53283,0.688258 -1.86494,1.332103 -3.57451,0.954678 -3.72991,-0.843674 -0.95467,-6.771571 -5.88348,-7.348823 0,0 2.61982,6.327539 5.75028,10.124059 h 28.884651 c 3.13045,-3.79652 5.75028,-10.124059 5.75028,-10.124059 -4.77341,0.555048 -1.99817,6.482945 -5.72808,7.326619 z"
       id="path38-6"
       style="clip-rule:evenodd;fill:#999999;fill-rule:evenodd;stroke:#008080;stroke-width:0.726027;stroke-dasharray:none" />
    <path
       class="st1"
       d="m 104.34513,112.70615 c -0.57726,-0.0666 -1.53195,-0.35523 -1.79836,-0.75486 0.19973,-0.44403 0.51064,-1.33212 0.51064,-2.3312 0,-0.55504 -0.0887,-1.15449 -0.35524,-1.70954 -0.22201,-0.59946 -0.64385,-1.0435 -1.2211,-1.28771 -0.42183,-0.24423 -0.88808,-0.35523 -1.39873,-0.35523 -1.598521,0 -2.908441,1.30991 -2.908441,2.90844 0,1.0657 0.59945,2.04258 1.53193,2.53102 0,0.0222 0,0.0222 0,0.0222 -0.24422,0.0222 -1.04348,0.0888 -1.04348,0.0888 l -0.0444,0.15541 c 0,0.0222 -0.0444,0.13321 -0.0444,0.28863 0,0.13321 0.0223,0.31082 0.13329,0.48844 0.0666,0.0888 0.15537,0.17761 0.31082,0.26642 -0.0444,0.0666 -0.0666,0.0888 -0.0887,0.13321 -0.19974,0 -1.15449,0.0444 -1.15449,0.0444 l -0.0223,0.22202 c 0,0.0222 0,0.0444 0,0.0888 0,0.24423 0.0666,0.55505 0.28863,0.75488 -0.0223,0.0444 -0.0444,0.0666 -0.0887,0.0888 -0.17765,0 -0.84367,0 -0.84367,0 0,0 -0.39964,-0.0666 -0.57725,-0.11103 -0.111,-0.13321 -0.82146,-0.97688 -0.88807,-1.06569 -0.19973,-0.73266 -0.26643,-1.30991 -0.26643,-1.70954 0,-0.86589 0.28864,-1.08789 0.28864,-1.1101 0.73266,-0.28863 0.91026,-0.55505 0.95467,-0.73267 0.111,-0.22202 0.17765,-0.46624 0.17765,-0.66605 0,-0.17761 -0.0444,-0.35522 -0.13329,-0.53284 -0.0666,-0.15541 -0.17765,-0.28863 -0.28862,-0.42184 v 0 c -0.44403,-0.46623 -1.08788,-0.73266 -1.53193,-0.73266 -0.17764,0 -0.42183,0.0444 -0.46624,0.24422 -0.0444,0.11103 -0.13329,0.17761 -0.26643,0.17761 -0.11101,0 -0.22202,-0.0888 -0.22202,-0.22201 0,-0.0222 -0.0666,-0.42184 -0.39964,-0.82148 -0.0444,-0.0444 -0.0887,-0.0888 -0.15537,-0.11103 -0.57725,-0.31083 -1.35433,-0.24422 -1.93157,0.15541 -0.62165,0.42184 -0.91026,1.1545 -0.82148,2.02037 l 0.0889,0.46624 0.37743,-0.37742 c 0.48845,-0.48845 1.62076,0.37742 2.08698,0.79926 -0.0223,0.22201 -0.15537,2.46441 -0.15537,2.61982 -0.73266,0.73266 -1.50972,1.73174 -1.73175,1.99817 -0.13329,0.0222 -0.62166,0.11102 -0.62166,0.11102 0,0 -0.62165,0 -0.79926,0 -0.0444,-0.0222 -0.0444,-0.0444 -0.0887,-0.0888 0.22202,-0.22202 0.28862,-0.53285 0.28862,-0.75486 0,-0.0444 0,-0.0666 0,-0.0888 l -0.0223,-0.22202 c 0,0 -0.93249,-0.0444 -1.1545,-0.0444 -0.0223,-0.0444 -0.0444,-0.0666 -0.0887,-0.13321 0.15537,-0.0888 0.24422,-0.17761 0.31082,-0.26642 0.0887,-0.17763 0.13329,-0.33303 0.13329,-0.48844 0,-0.15541 -0.0223,-0.26643 -0.0444,-0.28862 l -0.0444,-0.15541 c 0,0 -0.82146,-0.0666 -1.06568,-0.0888 0,0 0,0 0,-0.0222 0.93248,-0.51065 1.55413,-1.46532 1.55413,-2.53102 0,-1.59852 -1.30991,-2.90845 -2.90844,-2.90845 -0.48845,0 -0.9547,0.13321 -1.39873,0.37744 -0.57724,0.22202 -0.97689,0.66605 -1.2211,1.30991 -0.24422,0.53285 -0.35522,1.1323 -0.35522,1.68735 0,0.99908 0.31082,1.88716 0.51063,2.3534 -0.26642,0.42182 -1.22109,0.68826 -1.79834,0.75486 l -0.28864,0.0444 0.0666,0.28861 c 0.26642,1.08791 1.15449,1.48754 2.57541,1.15451 0.22201,-0.0666 0.44405,-0.17763 0.64386,-0.35523 0.111,0.15541 0.19993,0.28863 0.26643,0.35523 -0.0222,0.17761 -0.22203,2.3978 -0.22203,2.3978 -0.0667,0.53285 -1.30992,0.84368 -1.88715,0.91028 l -0.28863,0.0444 0.0666,0.26643 c 0.26642,1.08789 1.17669,1.48752 2.57542,1.15449 0.79925,-0.19981 1.37651,-0.99907 1.75395,-2.3534 0.0223,0.0444 0.0444,0.0666 0.0666,0.0888 -0.0444,0.48845 -0.26644,3.26368 -0.37745,4.04075 -0.0666,0.53284 -1.30988,0.84366 -1.88714,0.93247 l -0.28861,0.0222 0.0666,0.28863 c 0.26643,1.08789 1.1545,1.48751 2.57542,1.15449 1.57633,-0.37742 2.02038,-3.13047 2.13141,-4.24056 0,0.26643 0,3.33028 0,3.33028 0,0 0.26639,0.0444 0.33299,0.0444 0,0.0222 0,0.0444 0,0.0888 0,0.0444 0,0.11103 0.0223,0.17761 -0.42182,0.91028 -0.93247,2.04258 -1.1545,2.55322 -1.53192,-0.24422 -2.86404,0.55504 -2.90845,0.59946 l 0.57726,0.95468 c 0,0 0.46624,-0.26642 1.08788,-0.42184 -0.35522,0.35523 -0.68826,0.77706 -0.82147,1.19891 l 1.0657,0.28861 c 0.13329,-0.46623 0.99908,-1.17669 1.59853,-1.50973 0.0444,-0.0444 0.0889,-0.0666 0.13329,-0.1332 0.2886,-0.0888 1.17669,-0.11103 2.02036,-0.0888 l 0.0444,-1.11011 c -0.64386,-0.0222 -1.13228,-0.0222 -1.50972,0 l 0.91029,-2.04257 c 0,-0.0222 0.0444,-0.0222 0.0444,-0.0222 0.111,0.0666 0.37744,0.22202 0.37744,0.22202 0,0 0.62165,-0.22202 0.84367,-0.31083 0.0666,0.15541 0.17765,0.48845 0.17765,1.30992 0,0.37743 -0.0222,0.84366 -0.0887,1.44312 -0.0666,0.68826 -0.33302,1.1989 -0.77706,1.53193 -0.91029,0.64386 -2.26459,0.33303 -2.26459,0.33303 l -0.48845,-0.0888 0.19973,0.44403 c 0.39965,0.93248 0.97687,1.48753 1.66515,1.62074 0.64384,0.13321 1.26552,-0.1332 1.68734,-0.39963 0,0.13321 -0.0222,0.26642 -0.0222,0.39963 0,1.33212 0.88807,2.33119 0.93247,2.3978 l 0.17765,0.19983 0.17766,-0.19983 c 0.0666,-0.0444 0.95466,-1.06568 0.95466,-2.3978 0,-0.11102 -0.0222,-0.26642 -0.0444,-0.37742 0.42183,0.26642 1.04348,0.51064 1.68733,0.39963 0.68826,-0.13321 1.24332,-0.68826 1.66516,-1.62074 l 0.19973,-0.44404 -0.48845,0.0888 c 0,0 -1.37651,0.28863 -2.26459,-0.33303 -0.44404,-0.33302 -0.73266,-0.84368 -0.77706,-1.53193 -0.0667,-0.59945 -0.0889,-1.06568 -0.0889,-1.44313 0,-0.82146 0.11101,-1.15449 0.17765,-1.3099 0.24422,0.0888 0.84367,0.31082 0.84367,0.31082 0,0 0.13329,-0.0888 0.26642,-0.1554 l 0.97687,1.99817 c -0.37742,-0.0222 -0.86587,-0.0222 -1.4653,0 l 0.0444,1.11009 c 0.88807,-0.0444 1.82054,0 2.06475,0.0888 0.0223,0.0444 0.0667,0.0888 0.0889,0.11103 0.59945,0.33302 1.48754,1.04348 1.59853,1.50972 l 1.0657,-0.28862 c -0.13329,-0.42183 -0.44405,-0.84367 -0.82147,-1.1989 0.62164,0.13321 1.0879,0.39963 1.0879,0.42184 l 0.577261,-0.9547 c -0.0667,-0.0444 -1.398741,-0.84367 -2.930671,-0.59944 -0.22201,-0.46624 -0.71046,-1.44312 -1.1323,-2.30899 0.0444,-0.13322 0.0666,-0.26643 0.0666,-0.42184 0,-0.0222 0,-0.0444 0,-0.0888 0.0444,0 0.31082,-0.0444 0.31082,-0.0444 0,0 0,-3.06386 0,-3.33028 0.111,1.0879 0.55505,3.86312 2.15358,4.24056 1.398721,0.33303 2.286811,-0.0666 2.575431,-1.1545 l 0.0666,-0.28862 -0.28864,-0.0222 c -0.57725,-0.0666 -1.798341,-0.39963 -1.887171,-0.93247 -0.11099,-0.77707 -0.33301,-3.55231 -0.37742,-4.04075 0.0223,-0.0222 0.0444,-0.0444 0.0667,-0.0888 0.39964,1.35432 0.97689,2.17577 1.753961,2.35339 1.42092,0.33303 2.30899,-0.0666 2.5754,-1.15449 l 0.0667,-0.26642 -0.28864,-0.0444 c -0.57725,-0.0666 -1.79834,-0.39963 -1.88714,-0.91028 0,0 -0.17766,-1.95377 -0.22202,-2.3978 0.0444,-0.0888 0.15537,-0.19981 0.26642,-0.35523 0.19973,0.17761 0.42182,0.28862 0.64383,0.35523 1.42094,0.33303 2.30902,-0.0666 2.57545,-1.15451 l 0.0666,-0.28862 z m -7.593051,13.29893 z m -0.77709,-18.16113 0.31084,0.17761 0.55505,-0.95468 -0.66605,-0.39964 0.39964,-0.66606 -0.9547,-0.55504 -0.39962,0.66605 -0.66605,-0.39962 -0.55506,0.95467 0.13329,0.0888 c 0.64386,0.0888 1.39872,0.48844 1.84275,1.0879 z"
       id="path39-6"
       style="clip-rule:evenodd;fill:#999999;fill-rule:evenodd;stroke:#008080;stroke-width:0.726027;stroke-dasharray:none" />
    <path
       class="st1"
       d="m 75.549279,126.56013 c 0.44403,1.46533 0.95468,3.21926 0.99908,3.35249 0.11101,0.11102 1.42092,1.64293 2.15358,2.48661 l 0.59945,-0.13323 0.19994,-2.61982 c -0.33304,-0.24422 -2.55325,-1.97596 -3.95194,-3.08606 z m -1.57634,2.61981 c 0,-0.11102 -0.0889,-0.1998 -0.19973,-0.1998 -0.0887,0 -0.17766,0.0888 -0.17766,0.1998 0,0.0888 0.0889,0.17764 0.17766,0.17764 0.111,0 0.19973,-0.0888 0.19973,-0.17764 z m -6.39414,-6.0167 -4.44037,-3.5745 -1.99818,-0.31083 0.84369,1.93157 4.32935,3.6189 z m 2.59762,6.70496 c 0,0 1.93157,-1.08788 2.17579,-1.2433 0.111,-0.17763 0.39964,-0.71046 0.48844,-0.88807 0,-0.13321 0,-0.31082 0.0223,-0.59945 -0.42185,-0.11103 -0.93247,-0.22202 -1.30991,-0.33303 -0.31082,0.51064 -1.44313,2.37559 -1.44313,2.37559 l -2.93065,0.62166 -0.222,-1.08789 c 0,0 0.64385,-0.13321 1.30989,-0.26643 l -0.0223,-0.0222 1.0435,-1.19891 -2.88624,-2.3756 -2.17581,2.88624 2.46443,4.618 c 1.04347,-0.77707 3.44129,-2.46441 3.48569,-2.48661 z m 3.99633,-3.99633 0.82149,-1.1323 4.01854,3.15266 -1.66515,-4.26276 -3.08606,-0.75486 c 2.19799,-0.97688 3.75211,-3.19707 3.75211,-5.77248 0,-3.4857 -2.81964,-6.30534 -6.30533,-6.30534 -3.4857,0 -6.30534,2.81964 -6.30534,6.30534 0,2.57541 1.55415,4.77339 3.75213,5.77248 l -1.1545,-0.15541 -0.37745,0.51065 3.04168,2.3978 0.97688,-1.13229 0.84366,0.71045 -0.51065,0.59946 2.0426,0.51064 -0.0666,1.62074 c 0.62165,0.0888 1.1323,0.62165 1.1323,1.2877 0,0.71047 -0.57726,1.28772 -1.30992,1.28772 -0.48844,0 -0.93249,-0.28863 -1.1545,-0.71047 -0.64386,0.35524 -1.86497,1.04349 -1.86497,1.04349 0,0 -3.46349,2.44222 -3.97412,2.79745 l -0.13328,1.90935 -0.79929,9.94644 h 11.87802 l 0.26642,-8.94735 0.0889,-3.13046 -2.53103,-2.93066 z m -1.2877,-8.01488 c 0.35523,-0.62165 0.68826,-1.39872 0.71047,-1.64294 0,-0.82147 -0.75487,-1.48753 -1.66514,-1.48753 -0.91029,0 -1.66515,0.66606 -1.66515,1.48753 h -2.02037 c 0,-1.93156 1.64294,-3.5079 3.68552,-3.5079 2.04256,0 3.68551,1.57634 3.68551,3.5079 0,0.95469 -0.75487,2.28679 -0.9991,2.68642 z"
       id="path40-7"
       style="clip-rule:evenodd;fill:#999999;fill-rule:evenodd;stroke:#008080;stroke-width:0.726027;stroke-dasharray:none" />
    <path
       class="st1"
       d="m 111.20549,130.26784 c 0,0.55504 0.0223,1.26551 0.0223,1.82055 0.55506,0 1.26552,-0.0222 1.82056,-0.0222 0,-0.55504 -0.0223,-1.26551 -0.0223,-1.82054 -0.55505,0.0222 -1.26551,0.0222 -1.82057,0.0222 z m 9.32479,-5.63927 1.0879,1.04348 2.33119,-2.3756 -1.08788,-1.06569 -1.17671,-0.0666 0.62166,-0.66607 -0.84367,-0.84366 -2.88624,3.13047 -0.31084,-0.31084 c -0.44405,-0.1776 -2.22019,-0.88807 -2.3978,-0.95467 -0.22203,0 -3.26368,0.11102 -3.37469,0.11102 -0.0889,0.0444 -1.99817,0.55505 -2.5532,0.71047 -0.0666,0.62165 -0.13329,1.26549 -0.13329,1.26549 l -1.1767,7.90388 0.0223,1.90937 0.11101,11.10093 h 11.94459 l -0.97687,-11.34516 -0.19973,-2.86404 -3.17488,-0.28862 -2.22019,-0.82147 0.0444,2.93065 -4.04074,0.0222 -0.0444,-3.97413 2.95284,-0.0444 -0.64385,-1.30991 1.79834,-1.1545 0.28863,-0.17762 c 0,0 0.44403,0.22202 0.97688,0.51064 l 3.15267,-3.19707 0.77707,0.77706 -2.88624,2.93066 c 0.33302,0.17759 0.62163,0.31082 0.75486,0.37743 0.28861,-0.15542 0.75486,-0.39964 0.75486,-0.39964 l 0.53285,0.97688 -1.26551,0.68827 c 0,0 -2.26461,-1.17672 -2.73083,-1.39872 -0.22201,0.1332 -0.39965,0.26641 -0.68826,0.44403 0.17765,0.37743 0.35524,0.68825 0.44403,0.88808 0.35524,0.13321 2.2424,0.82147 2.3534,0.86587 0.0887,0.0222 1.75395,0.17763 3.06386,0.28863 l 1.68736,-0.13321 -1.24334,-4.81782 -0.75484,-0.73266 1.06568,-1.11009 z m -10.50149,-2.68644 c 0.0223,0.0444 0.0223,0.11103 0.0223,0.15541 0.0444,0.0222 0.0666,0.0444 0.11101,0.0666 l 2.17576,-0.59946 3.61892,-0.13321 h 0.11101 l 1.59853,0.64385 c 1.50972,-1.1545 2.5088,-2.95285 2.5088,-4.99542 0,-3.4857 -2.84182,-6.30533 -6.30531,-6.30533 -3.5079,0 -6.32754,2.81963 -6.32754,6.30533 0,0.17761 0.0223,0.33303 0.0223,0.48845 z m 4.15175,-9.23598 c 2.02037,0 3.68553,1.57634 3.68553,3.5079 0,0.95469 -0.75487,2.28679 -0.9991,2.68642 l -1.73176,-1.04348 c 0.37744,-0.62165 0.71048,-1.39872 0.71048,-1.64294 0,-0.82147 -0.75486,-1.48753 -1.66515,-1.48753 -0.91028,0 -1.66513,0.66606 -1.66513,1.48753 h -2.02038 c 0.0223,-1.93156 1.66514,-3.5079 3.68551,-3.5079 z m -5.26184,9.94644 -0.0889,-0.57724 c -0.37742,-0.66605 -1.39872,-2.46442 -2.08698,-3.72992 v 5.72809 l -1.37652,3.53009 0.15537,3.24148 2.24241,0.22202 c 0.33301,-2.33121 0.95467,-6.57176 0.95467,-6.57176 -0.0222,0.0222 0.13329,-1.2211 0.19973,-1.84276 z"
       id="path41-1"
       style="clip-rule:evenodd;fill:#999999;fill-rule:evenodd;stroke:#008080;stroke-width:0.726027;stroke-dasharray:none" />
    <path
       class="st1"
       d="m 92.378289,163.43744 v 0.77707 h -0.77704 v 1.11008 h 0.77704 v 0.77707 h 1.11011 v -0.77707 h 0.77706 v -1.11008 h -0.77706 v -0.77707 z m 5.99452,1.95376 -0.75486,0.0222 0.59945,-0.71045 -0.86587,-0.71047 -4.44039,5.37286 -4.46257,-5.37286 -0.86587,0.71047 0.59946,0.71045 -0.84369,-0.0222 -0.0667,0.0666 -1.0879,0.88807 2.13138,2.55322 1.17669,-0.95468 0.13329,-0.84366 2.59762,3.13045 -2.26458,2.73084 -3.99635,0.39963 0.46624,4.75118 4.77342,-0.44404 -0.39962,-3.97412 2.15355,-2.57541 2.1314,2.57541 -0.37744,3.97412 4.77342,0.44404 0.46622,-4.75118 -3.99633,-0.39963 -2.26461,-2.73084 2.59763,-3.13045 0.13329,0.84366 1.1545,0.95468 2.13139,-2.55322 -1.17671,-0.95468 z m -8.68093,8.72536 c 0.0666,0.64383 0.19973,1.90935 0.24421,2.5532 -0.64385,0.0666 -1.88716,0.19973 -2.5532,0.24421 -0.0666,-0.66603 -0.17765,-1.90937 -0.24423,-2.5532 0.64385,-0.0444 1.88716,-0.17761 2.55322,-0.24421 z m 6.43855,0 c 0.64385,0.0444 1.88716,0.1776 2.5532,0.24421 -0.0666,0.64383 -0.19973,1.88717 -0.26642,2.5532 -0.64386,-0.0444 -1.90936,-0.17764 -2.55322,-0.24421 0.0666,-0.64385 0.19973,-1.88716 0.26644,-2.5532 z"
       id="path42-6"
       style="clip-rule:evenodd;fill:#999999;fill-rule:evenodd;stroke:#008080;stroke-width:0.726027;stroke-dasharray:none" />
    <path
       class="st1"
       d="M 130.58774,98.008516 H 55.811819 v 49.177164 c 0,18.82717 17.36185,34.72374 37.89858,34.72374 9.546831,0 19.160221,-3.68553 26.353651,-10.14628 7.43762,-6.68276 11.54497,-15.40809 11.54497,-24.57746 V 98.008516 Z m -12.7661,55.682304 c 0,0.79927 0,2.73083 0,2.73083 h -5.68366 c 0,0 0,-1.93156 0,-2.73083 -0.97689,0 -2.1536,0 -3.13047,0 0,0.79927 0,2.73083 0,2.73083 h -5.68368 c 0,0 0,-1.93156 0,-2.73083 -0.9991,0 -2.15359,0 -3.15266,0 0,0.79927 0,2.73083 0,2.73083 h -5.683681 c 0,0 0,-1.93156 0,-2.73083 -0.99909,0 -2.1536,0 -3.15268,0 0,0.79927 0,2.73083 0,2.73083 h -5.68367 c 0,0 0,-1.93156 0,-2.73083 -0.99911,0 -2.15359,0 -3.15268,0 0,0.79927 0,2.73083 0,2.73083 h -5.68368 c 0,0 0,-1.93156 0,-2.73083 -0.99908,0 -2.15358,0 -3.15266,0 0,0.79927 0,2.73083 0,2.73083 h -5.68369 c 0,0 0,-1.93156 0,-2.73083 -1.02127,0 -3.13047,0 -4.15174,0 v 3.35248 h 1.59852 v 9.96864 c -4.72898,-5.55046 -7.59302,-12.43304 -7.59302,-19.82626 0,0 0,-45.20303 0,-47.1568 1.93154,0 69.802711,0 71.734251,0 0,1.95377 0,47.1568 0,47.1568 0,7.88166 -3.24145,15.40809 -9.16937,21.447 V 157.0433 h 1.59853 v -3.35248 c -1.02128,0 -3.15266,0 -4.17396,0 z m -39.763551,22.80133 c 0,-0.0666 0,-0.13329 0,-0.19973 0,-2.66423 0.64385,-5.17304 1.75395,-7.37104 2.50881,-4.92881 7.41542,-8.2813 13.0991,-8.2813 5.9501,0 11.056541,3.68552 13.454341,9.03618 0.88809,2.02036 1.39872,4.24056 1.39872,6.61616 0,0.26642 0,0.53283 -0.0222,0.79927 -4.46257,1.82054 -9.258191,2.79744 -14.053791,2.79744 -5.55045,0 -10.87891,-1.24332 -15.63012,-3.3969 z m 9.61342,-22.09086 c 0.66605,0 0.97688,0 1.64293,0 0,-0.82148 0,-2.73084 0,-2.73084 h 7.19341 c 0,0 0,1.90936 0,2.73084 0.66605,0 0.99909,0 1.64295,0 0,-0.82148 0,-2.73084 0,-2.73084 h 2.375591 v -10.6569 l 2.15358,-2.77524 v -4.55138 h -3.152651 v 2.73083 h -2.30901 v -2.73083 h -3.15267 v 2.73083 h -2.28678 v -2.73083 h -3.15268 v 2.73083 h -2.30899 v -2.73083 h -3.15268 v 4.55138 l 2.15361,2.77524 v 10.6569 h 2.33118 c 0.0222,0 0.0222,1.90936 0.0222,2.73084 z m 26.486831,0 c 0.64385,0 0.97687,0 1.64296,0 0,-0.82148 0,-2.73084 0,-2.73084 h 0.99907 3.5745 v -4.48477 h -11.96682 v 4.48477 h 5.72809 c 0.0222,0 0.0222,1.90936 0.0222,2.73084 z m -44.159531,0 c 0.66606,0 0.97688,0 1.64294,0 0,-0.82148 0,-2.73084 0,-2.73084 h 5.72808 v -4.48477 h -11.94462 v 4.48477 h 4.5958 c -0.0222,0 -0.0222,1.90936 -0.0222,2.73084 z"
       id="path43-1"
       style="clip-rule:evenodd;fill:#999999;fill-rule:evenodd;stroke:#008080;stroke-width:0.726027;stroke-dasharray:none" />
  </g>
</svg>
